# xmcd
#
# Track frame offsets:
#	150
#	16801
#	35088
#	57141
#	73422
#	89735
#	109198
#	125909
#	144197
#	166242
#	182554
#	198913
#
# Disc length: 2911 seconds
#
# Revision: 1
# Processed by: cddbd v1.5.2PL0 Copyright (c) Steve Scherf et al.
# Submitted via: audiograbber 1.83.01
#
DISCID=ac0b5d0c
DTITLE=Sugarland - Chartbusters
DYEAR=2008
DGENRE=Karaoke
TTITLE0=All I want to do
TTITLE1=Everyday America
TTITLE2=Stay
TTITLE3=Settlin
TTITLE4=Want to
TTITLE5=Life in a northern town
TTITLE6=All I want to do w/vocals
TTITLE7=Everyday America w/vocals
TTITLE8=Stay w/vocals
TTITLE9=Settlin w/vocals
TTITLE10=Want to w/vocals
TTITLE11=Life in a northern town w/voals
EXTD=
EXTT0=
EXTT1=
EXTT2=
EXTT3=
EXTT4=
EXTT5=
EXTT6=
EXTT7=
EXTT8=
EXTT9=
EXTT10=
EXTT11=
PLAYORDER=
